<?xml version="1.0" encoding="iso-8859-1"?>
<!-- Generator: Adobe Illustrator 18.0.0, SVG Export Plug-In . SVG Version: 6.00 Build 0)  -->
<!DOCTYPE svg PUBLIC "-//W3C//DTD SVG 1.1//EN" "http://www.w3.org/Graphics/SVG/1.1/DTD/svg11.dtd">
<svg version="1.1" id="Capa_1" xmlns="http://www.w3.org/2000/svg" xmlns:xlink="http://www.w3.org/1999/xlink" x="0px" y="0px"
	 viewBox="0 0 490.129 490.129" style="enable-background:new 0 0 490.129 490.129;" xml:space="preserve">
<g id="XMLID_44_">
	<g id="XMLID_74_">
		<polygon id="XMLID_75_" points="489.838,375.695 405.751,375.695 405.751,360.409 474.552,360.409 474.552,152.38 15.577,152.38 
			15.577,360.409 92.006,360.409 92.006,375.695 0.291,375.695 0.291,137.094 489.838,137.094 		"/>
	</g>
	<g id="XMLID_69_">
		<path id="XMLID_70_" d="M390.57,490.129H107.336V291.452H390.57V490.129z M123.614,473.858h250.685V307.723H123.614V473.858z"/>
	</g>
	<g id="XMLID_67_">
		<polygon id="XMLID_68_" points="390.57,122.667 374.299,122.667 374.299,16.271 125.118,16.271 125.118,122.667 108.84,122.667 
			108.84,0 390.57,0 		"/>
	</g>
	<g id="XMLID_65_">
		<rect id="XMLID_66_" x="47.064" y="175.064" width="298" height="17"/>
	</g>
	<g id="XMLID_63_">
		<rect id="XMLID_64_" x="47.064" y="222.064" width="22" height="17"/>
	</g>
	<g id="XMLID_61_">
		<rect id="XMLID_62_" x="84.064" y="222.064" width="24" height="17"/>
	</g>
	<g id="XMLID_59_">
		<rect id="XMLID_60_" x="123.064" y="222.064" width="22" height="17"/>
	</g>
	<g id="XMLID_57_">
		<rect id="XMLID_58_" x="359.064" y="175.064" width="25" height="17"/>
	</g>
	<g id="XMLID_55_">
		<rect id="XMLID_56_" x="145.064" y="428.064" width="170" height="15"/>
	</g>
	<g id="XMLID_53_">
		<rect id="XMLID_54_" x="329.064" y="428.064" width="22" height="15"/>
	</g>
	<g id="XMLID_51_">
		<rect id="XMLID_52_" x="145.064" y="337.064" width="93" height="14"/>
	</g>
	<g id="XMLID_49_">
		<rect id="XMLID_50_" x="251.064" y="337.064" width="100" height="14"/>
	</g>
	<g id="XMLID_47_">
		<rect id="XMLID_48_" x="183.064" y="384.064" width="168" height="15"/>
	</g>
	<g id="XMLID_45_">
		<rect id="XMLID_46_" x="145.064" y="384.064" width="25" height="15"/>
	</g>
</g>
<g>
</g>
<g>
</g>
<g>
</g>
<g>
</g>
<g>
</g>
<g>
</g>
<g>
</g>
<g>
</g>
<g>
</g>
<g>
</g>
<g>
</g>
<g>
</g>
<g>
</g>
<g>
</g>
<g>
</g>
</svg>
